HIERARCHY
ROOT Hips
{
  OFFSET -43.3411 73.6987 0
  CHANNELS 6 Xposition Yposition Zposition Zrotation Xrotation Yrotation
  JOINT Bip01_Pelvis
  {
    OFFSET 0 0 0
    CHANNELS 6 Xposition Yposition Zposition Zrotation Xrotation Yrotation
    JOINT BN_Tail_01
    {
      OFFSET -18.6385 -9.591 -2.032e-005
      CHANNELS 6 Xposition Yposition Zposition Zrotation Xrotation Yrotation
      JOINT BN_Tail_02
      {
        OFFSET 20.9743 0 0
        CHANNELS 6 Xposition Yposition Zposition Zrotation Xrotation Yrotation
        JOINT BN_Tail_03
        {
          OFFSET 20.3015 0 0
          CHANNELS 6 Xposition Yposition Zposition Zrotation Xrotation Yrotation
          JOINT BN_Tail_04
          {
            OFFSET 21.6394 -9.91821e-005 0
            CHANNELS 6 Xposition Yposition Zposition Zrotation Xrotation Yrotation
            End Site
            {
              OFFSET 0 0 0
            }
          }
        }
      }
    }
    JOINT Bip01_Spine
    {
      OFFSET 22.1878 -0.659386 3.048e-005
      CHANNELS 6 Xposition Yposition Zposition Zrotation Xrotation Yrotation
      JOINT Bip01_R_Thigh
      {
        OFFSET -22.1873 0.677109 -17.1024
        CHANNELS 6 Xposition Yposition Zposition Zrotation Xrotation Yrotation
        JOINT Bip01_R_Calf
        {
          OFFSET 34.2647 0 0
          CHANNELS 6 Xposition Yposition Zposition Zrotation Xrotation Yrotation
          JOINT Bip01_R_HorseLink
          {
            OFFSET 20.4429 0 0
            CHANNELS 6 Xposition Yposition Zposition Zrotation Xrotation Yrotation
            JOINT Bip01_R_Foot
            {
              OFFSET 16.5673 0 0
              CHANNELS 6 Xposition Yposition Zposition Zrotation Xrotation Yrotation
              JOINT Bip01_R_Toe0
              {
                OFFSET 9.18784 6.94841 0
                CHANNELS 6 Xposition Yposition Zposition Zrotation Xrotation Yrotation
                JOINT Bip01_R_Toe0Nub
                {
                  OFFSET 1.01907 0 0
                  CHANNELS 6 Xposition Yposition Zposition Zrotation Xrotation Yrotation
                  End Site
                  {
                    OFFSET 0 0 0
                  }
                }
              }
            }
          }
        }
      }
      JOINT Bip01_L_Thigh
      {
        OFFSET -22.1873 0.67701 17.1024
        CHANNELS 6 Xposition Yposition Zposition Zrotation Xrotation Yrotation
        JOINT Bip01_L_Calf
        {
          OFFSET 34.2647 0 0
          CHANNELS 6 Xposition Yposition Zposition Zrotation Xrotation Yrotation
          JOINT Bip01_L_HorseLink
          {
            OFFSET 20.4429 0 0
            CHANNELS 6 Xposition Yposition Zposition Zrotation Xrotation Yrotation
            JOINT Bip01_L_Foot
            {
              OFFSET 16.5673 0 0
              CHANNELS 6 Xposition Yposition Zposition Zrotation Xrotation Yrotation
              JOINT Bip01_L_Toe0
              {
                OFFSET 9.18784 6.9484 1.14441e-005
                CHANNELS 6 Xposition Yposition Zposition Zrotation Xrotation Yrotation
                JOINT Bip01_L_Toe0Nub
                {
                  OFFSET 1.01907 0 0
                  CHANNELS 6 Xposition Yposition Zposition Zrotation Xrotation Yrotation
                  End Site
                  {
                    OFFSET 0 0 0
                  }
                }
              }
            }
          }
        }
      }
      JOINT Bip01_Spine1
      {
        OFFSET 39.3372 -0.0249863 0
        CHANNELS 6 Xposition Yposition Zposition Zrotation Xrotation Yrotation
        JOINT Bip01_Neck
        {
          OFFSET 34.2837 -15.5934 -4.318e-005
          CHANNELS 6 Xposition Yposition Zposition Zrotation Xrotation Yrotation
          JOINT Bip01_R_Clavicle
          {
            OFFSET -17.9452 -11.3131 -6.19287
            CHANNELS 6 Xposition Yposition Zposition Zrotation Xrotation Yrotation
            JOINT Bip01_R_UpperArm
            {
              OFFSET 17.4439 1.52588e-005 -2.28882e-005
              CHANNELS 6 Xposition Yposition Zposition Zrotation Xrotation Yrotation
              JOINT Bip01_R_Forearm
              {
                OFFSET 30.6251 1.14441e-005 0
                CHANNELS 6 Xposition Yposition Zposition Zrotation Xrotation Yrotation
                JOINT Bip01_R_Hand
                {
                  OFFSET 31.2039 0 0
                  CHANNELS 6 Xposition Yposition Zposition Zrotation Xrotation Yrotation
                  JOINT Bip01_R_Finger0
                  {
                    OFFSET 22.1039 0.255862 -0.37902
                    CHANNELS 6 Xposition Yposition Zposition Zrotation Xrotation Yrotation
                    JOINT Bip01_R_Finger0Nub
                    {
                      OFFSET 12.0552 0 0
                      CHANNELS 6 Xposition Yposition Zposition Zrotation Xrotation Yrotation
                      End Site
                      {
                        OFFSET 0 0 0
                      }
                    }
                  }
                }
              }
            }
          }
          JOINT Bip01_L_Clavicle
          {
            OFFSET -17.9452 -11.3132 6.19281
            CHANNELS 6 Xposition Yposition Zposition Zrotation Xrotation Yrotation
            JOINT Bip01_L_UpperArm
            {
              OFFSET 17.444 0 1.14441e-005
              CHANNELS 6 Xposition Yposition Zposition Zrotation Xrotation Yrotation
              JOINT Bip01_L_Forearm
              {
                OFFSET 30.6251 0 0
                CHANNELS 6 Xposition Yposition Zposition Zrotation Xrotation Yrotation
                JOINT Bip01_L_Hand
                {
                  OFFSET 31.204 0 0
                  CHANNELS 6 Xposition Yposition Zposition Zrotation Xrotation Yrotation
                  JOINT Bip01_L_Finger0
                  {
                    OFFSET 22.1039 0.255856 0.379024
                    CHANNELS 6 Xposition Yposition Zposition Zrotation Xrotation Yrotation
                    JOINT Bip01_L_Finger0Nub
                    {
                      OFFSET 12.0552 0 0
                      CHANNELS 6 Xposition Yposition Zposition Zrotation Xrotation Yrotation
                      End Site
                      {
                        OFFSET 0 0 0
                      }
                    }
                  }
                }
              }
            }
          }
          JOINT Bip01_Neck1
          {
            OFFSET 14.9359 -0.0106278 0
            CHANNELS 6 Xposition Yposition Zposition Zrotation Xrotation Yrotation
            JOINT Bip01_Head
            {
              OFFSET 14.3578 0.505501 0
              CHANNELS 6 Xposition Yposition Zposition Zrotation Xrotation Yrotation
              JOINT BN_Ear_L_01
              {
                OFFSET 3.76994 -2.35629 12.3444
                CHANNELS 6 Xposition Yposition Zposition Zrotation Xrotation Yrotation
                End Site
                {
                  OFFSET 0 0 0
                }
              }
              JOINT BN_Ear_R_01
              {
                OFFSET 3.76995 -2.35622 -12.3442
                CHANNELS 6 Xposition Yposition Zposition Zrotation Xrotation Yrotation
                End Site
                {
                  OFFSET 0 0 0
                }
              }
              JOINT BN_Mouth_01
              {
                OFFSET 11.8395 10.8645 1.27e-005
                CHANNELS 6 Xposition Yposition Zposition Zrotation Xrotation Yrotation
                JOINT BN_Tongue_01
                {
                  OFFSET 9.73752 3.21674 1.016e-005
                  CHANNELS 6 Xposition Yposition Zposition Zrotation Xrotation Yrotation
                  JOINT BN_Tongue_02
                  {
                    OFFSET 9.04304 0.053505 0
                    CHANNELS 6 Xposition Yposition Zposition Zrotation Xrotation Yrotation
                    End Site
                    {
                      OFFSET 0 0 0
                    }
                  }
                }
                JOINT BN_Beard_01
                {
                  OFFSET 6.93466 -0.751793 0
                  CHANNELS 6 Xposition Yposition Zposition Zrotation Xrotation Yrotation
                  JOINT BN_Beard_02
                  {
                    OFFSET 13.0965 1.52588e-005 0
                    CHANNELS 6 Xposition Yposition Zposition Zrotation Xrotation Yrotation
                    End Site
                    {
                      OFFSET 0 0 0
                    }
                  }
                }
              }
              JOINT Bip01_HeadNub
              {
                OFFSET 25.6158 0 0
                CHANNELS 6 Xposition Yposition Zposition Zrotation Xrotation Yrotation
                End Site
                {
                  OFFSET 0 0 0
                }
              }
            }
          }
        }
      }
    }
  }
}
MOTION
Frames:	4
Frame Time:	0.0333333
-42.8927 22.3502 1.37519 -174.769 0.627465 -100.116 -3.8147e-006 4.76837e-007 -7.10543e-015 -96.7089 -3.52712 -79.6437 -18.6385 -9.591 0 -15.5587 0.325276 -178.273 20.9743 2.72848e-012 -0.000609875 12.4008 -1.45023 0.477703 20.3015 7.10543e-015 4.76837e-007 16.6756 5.47527 2.44217 21.6394 2.28882e-005 -9.53675e-007 0.767664 10.711 -7.68931 21.7613 -2.01562 3.88936 1.06083 21.2836 -13.4594 -25.881 -5.36797 -14.82 -72.4665 -49.5282 168.357 34.2647 -3.9968e-015 -1.90735e-006 -59.9738 4.3728e-006 9.55447e-006 20.4429 3.8147e-006 -3.8147e-006 51.8674 7.70747e-006 5.92402e-006 16.5673 -3.55271e-015 4.26326e-014 -56.0145 13.8923 -22.0364 9.18785 6.94838 -3.89723e-006 43.4709 56.9973 130.576 1.01907 -1.06581e-014 1.42109e-014 5.41844e-008 -1.28812e-008 5.69396e-009 -18.4622 7.04983 16.1757 -86.4137 -25.2396 162.864 34.2647 -1.90735e-006 9.53674e-006 -55.3389 -2.54865e-006 1.44804e-005 20.4429 5.72205e-006 -1.90735e-006 56.6817 2.44689e-005 -4.09674e-006 16.5673 -3.8147e-006 3.8147e-006 -40.9484 -8.13968 -11.0373 9.18784 6.94839 -3.96449e-006 124.995 8.02902e-006 -4.98281e-006 1.01907 0 3.8147e-006 179.96 -2.69353e-005 1.77157e-005 39.3468 -0.0241776 -0.0135025 28.9034 32.6049 -4.23744 34.2892 -15.5917 4.68555e-005 9.40102 8.02506 5.70556 -18.5513 -9.94839 -6.72766 174.582 -29.9171 129.855 17.4439 -7.6294e-006 7.62939e-006 71.4858 57.3566 -107.23 30.6251 3.8147e-006 3.97904e-013 -38.4186 -3.35266e-006 8.16783e-006 31.204 -3.87246e-013 0 -16.2435 54.8058 -2.17194 22.1039 0.255847 -0.379038 4.78077 25.0764 -9.00503 12.0552 1.90735e-006 -1.13249e-006 179.96 1.52399e-005 -1.56319e-005 -19.7708 -8.21878 5.47587 -176.702 -61.0426 -100.68 17.4439 7.6294e-006 3.8147e-006 115.777 -48.9745 -137.221 30.6251 -1.43051e-006 0 -53.6043 -1.03598e-005 -1.45057e-005 31.2039 -7.62941e-006 -3.8147e-006 105.567 -81.9907 126.408 22.1039 0.255849 0.379031 -4.97829 1.99332 4.02256 12.0552 -1.42109e-013 7.62938e-006 -1.41428e-006 1.01126e-005 3.19462e-007 14.9354 -0.0106354 0.000167847 5.18476 -2.61024 4.25105 14.3578 0.505471 -2.68912e-008 1.86138 29.1628 -3.94337 3.7699 -2.3563 12.3444 159.594 34.2954 -77.3621 3.76994 -2.35624 -12.3442 1.37669 34.6855 97.0032 11.8394 10.8645 -3.2613e-007 -162.422 -3.90727 179.762 9.73753 3.21674 2.08528e-007 -2.85749 -3.01045e-007 2.88374e-007 2.55462 -1.10587 -0.153761 4.77837 -2.94618 -1.72235 6.93468 -0.751793 9.04939e-007 -37.3854 -20.3695 -32.1397 13.0966 3.05176e-005 -2.3841e-007 4.03157 7.30422 -35.4297 25.6158 -1.42109e-014 -2.38419e-007 -6.59259e-008 1.08709e-006 1.93923e-006 
-42.8795 20.9205 1.37519 -175.609 0.028086 -99.87 -3.8147e-006 4.76837e-007 7.10543e-015 -96.7338 -3.4194 -78.9804 -18.6385 -9.591 -1.42109e-014 -15.6912 0.325301 -179.201 20.9743 1.6982e-012 -0.000609875 12.4074 -1.43287 -0.816636 20.3015 -7.10543e-015 4.76837e-007 17.1814 5.40293 2.25684 21.6394 2.28882e-005 -9.53675e-007 1.21356 10.3275 -1.88783 21.7184 -1.97435 4.1414 1.20952 21.2681 -13.7671 -25.9708 -5.44051 -14.9269 -75.4008 -48.4471 165.69 34.2647 6.21725e-015 -1.90735e-006 -62.969 -4.42596e-006 1.3373e-005 20.4429 3.8147e-006 -3.8147e-006 52.5597 1.59103e-007 -1.4177e-007 16.5673 -1.77636e-015 -7.10543e-015 -55.9029 12.7933 -21.7357 9.18785 6.94838 -3.91067e-006 43.515 58.6762 130.128 1.01907 -3.55271e-015 0 5.41844e-008 -1.28812e-008 5.69396e-009 -18.3846 6.9684 16.0321 -87.7453 -23.9099 160.929 34.2647 -1.90735e-006 9.53674e-006 -56.2725 -3.76187e-006 1.24231e-005 20.4429 5.72205e-006 -1.90735e-006 56.5134 8.95587e-006 -9.25682e-006 16.5673 -3.8147e-006 3.8147e-006 -41.2042 -8.36348 -10.0805 9.18784 6.94839 -3.94349e-006 125.17 -0.0980041 -0.518365 1.01907 0 3.8147e-006 179.96 -2.69353e-005 1.77157e-005 39.3464 -0.0241776 -0.0135385 27.2313 32.7403 -2.49692 34.2892 -15.5917 4.68385e-005 9.19415 7.57934 5.89244 -18.4895 -9.97862 -6.85235 174.904 -30.3464 129.788 17.4439 -7.6294e-006 7.62939e-006 69.2942 53.9904 -103.258 30.6251 3.8147e-006 1.13687e-013 -45.652 -4.6903e-006 6.50253e-006 31.204 -3.12639e-013 0 -10.9317 55.9862 -4.5831 22.1039 0.255847 -0.379038 4.60855 24.7293 -8.8051 12.0552 1.90736e-006 -1.13249e-006 179.96 1.52404e-005 -1.56321e-005 -19.75 -8.34445 5.36014 -177.744 -58.1968 -100.578 17.4439 7.6294e-006 3.8147e-006 118.284 -51.4974 -137.483 30.6251 -1.43051e-006 -7.10542e-015 -55.7371 -9.7301e-006 -1.49048e-005 31.2039 -7.62941e-006 -3.8147e-006 111.489 -82.404 130.817 22.1039 0.255849 0.379031 -4.97856 1.99316 4.4434 12.0552 -1.84742e-013 7.62938e-006 -1.41428e-006 1.01126e-005 3.19462e-007 14.9354 -0.0106354 0.000167847 5.2301 -4.29276 3.02686 14.3578 0.505471 -2.51108e-008 3.82705 30.8969 -4.93486 3.7699 -2.3563 12.3444 160.951 34.2686 -79.3254 3.76994 -2.35624 -12.3442 1.5066 34.2624 96.5036 11.8394 10.8645 -2.02145e-007 -162.068 -3.93029 179.788 9.73753 3.21674 2.18984e-007 -2.85749 -2.02464e-007 2.97659e-007 2.55462 -1.10587 -0.153761 4.77837 -2.94618 -1.72235 6.93468 -0.751793 9.02495e-007 -37.0754 -19.1693 -33.7401 13.0966 3.05176e-005 -2.3841e-007 3.77529 7.42423 -35.367 25.6158 -7.10543e-015 -2.38419e-007 -6.59259e-008 1.08709e-006 1.93923e-006 
-42.8668 19.4598 1.37519 -176.558 -0.607491 -99.6507 -3.8147e-006 4.76837e-007 0 -96.7587 -3.32079 -78.3636 -18.6385 -9.591 3.55271e-015 -15.825 0.325362 179.86 20.9743 6.78568e-013 -0.000609875 12.4141 -1.41557 -2.12648 20.3015 7.10543e-015 4.76837e-007 17.9928 5.33349 1.69305 21.6394 2.28882e-005 -9.53675e-007 1.69134 9.88256 3.3052 21.6758 -1.93663 4.37536 1.29922 21.2361 -13.9365 -26.0234 -5.51803 -15.0738 -78.159 -47.1722 163.14 34.2647 -1.77636e-015 -1.90735e-006 -65.9575 -5.28039e-006 1.24186e-005 20.4429 3.8147e-006 -3.8147e-006 53.2598 2.21133e-006 1.27567e-006 16.5673 -1.77636e-015 -3.55271e-014 -55.8134 11.7069 -21.232 9.18785 6.94838 -3.92345e-006 43.6519 60.3156 129.566 1.01907 -1.42109e-014 1.42109e-014 5.41844e-008 -1.28812e-008 5.69396e-009 -18.344 6.87258 15.8693 -89.0291 -22.3115 158.859 34.2647 -1.90735e-006 9.53674e-006 -57.0555 5.76035e-006 8.70358e-006 20.4429 5.72205e-006 -1.90735e-006 56.6102 6.77915e-006 -7.9945e-006 16.5673 -3.8147e-006 3.8147e-006 -41.8381 -8.3402 -9.17689 9.18784 6.94839 -3.94537e-006 125.353 -0.161055 -1.06731 1.01907 0 3.8147e-006 179.96 -2.69353e-005 1.77156e-005 39.3459 -0.0241776 -0.0135737 25.398 32.8572 -0.557538 34.2892 -15.5917 4.68194e-005 9.0799 7.12031 6.0456 -18.4452 -9.97662 -6.97431 175.126 -30.7973 129.707 17.4439 -7.6294e-006 7.62939e-006 68.0592 50.0048 -99.1109 30.6251 3.8147e-006 -1.63425e-013 -54.0082 -6.33326e-006 4.71244e-006 31.204 -2.91323e-013 0 -4.58083 57.9173 -7.57909 22.1039 0.255847 -0.379038 4.52047 24.009 -9.31304 12.0552 1.90736e-006 -1.13249e-006 179.96 1.52409e-005 -1.56321e-005 -19.7396 -8.44088 5.24743 -178.639 -55.609 -100.329 17.4439 7.6294e-006 3.8147e-006 120.828 -53.8207 -137.459 30.6251 -1.43051e-006 0 -57.6215 -9.17974e-006 -1.52378e-005 31.2039 -7.62941e-006 -3.8147e-006 117.733 -82.6997 135.366 22.1039 0.255849 0.379031 -4.97861 1.9926 4.77578 12.0552 -1.42109e-013 7.62938e-006 -1.41428e-006 1.01126e-005 3.19462e-007 14.9354 -0.0106354 0.000167847 5.17389 -5.69814 2.03479 14.3578 0.505471 -2.35373e-008 5.84572 32.262 -5.9502 3.7699 -2.3563 12.3444 162.538 33.4692 -81.481 3.76994 -2.35624 -12.3442 1.81015 33.0526 95.4191 11.8394 10.8645 -9.18898e-008 -161.733 -3.95001 179.813 9.73753 3.21674 2.27579e-007 -2.85749 -1.1579e-007 3.0529e-007 2.55462 -1.10587 -0.153761 4.77837 -2.94618 -1.72235 6.93468 -0.751793 9.00486e-007 -36.8735 -18.1195 -35.3249 13.0966 3.05176e-005 -2.3841e-007 3.60279 7.68202 -35.2116 25.6158 7.10543e-015 -2.38419e-007 -6.59426e-008 1.08709e-006 1.93923e-006 
-42.8541 17.9737 1.37519 -177.598 -1.27849 -99.456 -3.8147e-006 4.76837e-007 7.10543e-015 -96.7849 -3.23538 -77.7805 -18.6385 -9.591 -1.06581e-014 -15.9643 0.32535 178.911 20.9743 -3.37508e-013 -0.000609875 12.421 -1.3988 -3.44924 20.3015 -1.42109e-014 4.76837e-007 19.2122 5.26069 0.917745 21.6394 2.28882e-005 -9.53675e-007 2.18323 9.3952 7.79783 21.6329 -1.90328 4.59622 1.32952 21.1914 -13.9913 -26.0443 -5.60306 -15.2556 -80.6562 -45.7156 160.784 34.2647 -5.32907e-015 -1.90735e-006 -68.8664 3.26299e-006 7.65487e-006 20.4429 3.8147e-006 -3.8147e-006 53.9188 2.05073e-006 1.03103e-006 16.5673 0 -4.9738e-014 -55.7097 10.6097 -20.527 9.18785 6.94838 -3.93586e-006 43.9401 61.9034 128.84 1.01907 -7.10543e-015 0 5.41844e-008 -1.28812e-008 5.69396e-009 -18.3333 6.76237 15.6898 -89.6246 -20.7562 157.183 34.2647 -1.90735e-006 9.53674e-006 -57.1947 -1.11033e-006 1.54773e-005 20.4429 5.72205e-006 -1.90735e-006 57.0635 4.55672e-006 -8.14964e-006 16.5673 -3.8147e-006 3.8147e-006 -42.8617 -8.16084 -8.74213 9.18784 6.94839 -3.98123e-006 125.424 -0.0537869 -1.31553 1.01907 0 3.8147e-006 179.96 -2.69353e-005 1.77155e-005 39.3455 -0.0241776 -0.0136092 23.4266 32.9445 1.54535 34.2892 -15.5917 4.67973e-005 9.09828 6.64957 6.14033 -18.4282 -9.92913 -7.08758 175.189 -31.2803 129.581 17.4439 -7.6294e-006 7.62939e-006 67.4302 47.2943 -95.8581 30.6251 3.8147e-006 -3.26849e-013 -59.5307 -7.15314e-006 3.21149e-006 31.204 -2.4869e-013 0 -0.935907 59.5916 -9.35014 22.1039 0.255847 -0.379038 4.41393 23.14 -10.0056 12.0552 1.90736e-006 -1.13249e-006 179.96 1.52413e-005 -1.56321e-005 -19.7442 -8.49451 5.14417 -179.481 -53.375 -99.9877 17.4439 7.6294e-006 3.8147e-006 123.406 -55.8862 -137.075 30.6251 -1.43051e-006 0 -59.1691 -8.74167e-006 -1.54972e-005 31.2039 -7.62941e-006 -3.8147e-006 124.095 -82.855 139.878 22.1039 0.255849 0.379031 -4.97852 1.99218 5.01119 12.0552 -1.5632e-013 7.62938e-006 -1.41428e-006 1.01126e-005 3.19462e-007 14.9354 -0.0106354 0.000167847 5.06141 -6.70974 1.35056 14.3578 0.505471 -2.21771e-008 7.86397 33.1727 -6.9802 3.7699 -2.3563 12.3444 164.38 31.7017 -83.8703 3.76994 -2.35624 -12.3442 2.2039 31.0623 93.7577 11.8394 10.8645 7.50177e-009 -161.4 -3.93422 179.834 9.73753 3.21674 2.35673e-007 -2.85749 -3.69709e-008 2.62687e-007 2.55462 -1.10587 -0.153761 4.77837 -2.94618 -1.72235 6.93468 -0.751793 8.98595e-007 -36.805 -17.2389 -36.9287 13.0966 3.05176e-005 -2.3841e-007 3.51506 8.13959 -34.9545 25.6158 0 -2.38419e-007 -1.00838e-005 1.08709e-006 1.93922e-006 
